# xmcd
#
# Track frame offsets:
#	188
#	10613
#	24338
#	36713
#	50963
#	64913
#	75188
#	89888
#	115988
#	129113
#	138713
#	152513
#	163313
#	181013
#	196350
#	211588
#	224400
#	241500
#	260338
#	268288
#
# Disc length: 3755 seconds
#
# Revision: 2
# Processed by: cddbd v1.5.1PL0 Copyright (c) Steve Scherf et al.
# Submitted via: audiograbber 1.83.01
#
DISCID=1a0ea914
DTITLE=Louis Armstrong - What a Wonderful World
DYEAR=1900
DGENRE=Blues
TTITLE0=What a Wonderful World
TTITLE1=Down by the Riverside
TTITLE2=When the Saints go marching in
TTITLE3=Only you
TTITLE4=Georgia on my Mind
TTITLE5=Skokiann
TTITLE6=Blueberry Hill
TTITLE7=On the Sunny Side of the Streets
TTITLE8=I can`t give you anything but Love
TTITLE9=Royal Garden Bluse
TTITLE10=C`est si bon
TTITLE11=Hello Dolly
TTITLE12=Cabaret
TTITLE13=High Society
TTITLE14=Mack the Knife
TTITLE15=Stopin` at the Savoy
TTITLE16=Back Home again in Indiana
TTITLE17=King Porter Stomp
TTITLE18=St. James Infirmary
TTITLE19=A Kiss to build a Dream on
EXTD=
EXTT0=
EXTT1=
EXTT2=
EXTT3=
EXTT4=
EXTT5=
EXTT6=
EXTT7=
EXTT8=
EXTT9=
EXTT10=
EXTT11=
EXTT12=
EXTT13=
EXTT14=
EXTT15=
EXTT16=
EXTT17=
EXTT18=
EXTT19=
PLAYORDER=
